<?xml version="1.0" encoding="utf-8"?>
<!-- Generator: Adobe Illustrator 25.4.1, SVG Export Plug-In . SVG Version: 6.00 Build 0)  -->
<svg version="1.1" id="Layer_1" xmlns="http://www.w3.org/2000/svg" xmlns:xlink="http://www.w3.org/1999/xlink" x="0px" y="0px"
	 viewBox="0 0 52 52" style="enable-background:new 0 0 52 52;" xml:space="preserve">
<style type="text/css">
	.st0{fill:#174944;}
	.st1{fill:#FFFFFF;}
</style>
<circle class="st0" cx="26" cy="26" r="26"/>
<g id="NVk3QN_00000162337790606503681080000012003802431851909544_">
	<g>
		<path class="st1" d="M24.9,40.4c-1.9,0-3.8,0-5.7,0c-7,0-12.4-5.6-12.3-12.6c0.1-6.8,5.8-12.2,12.7-12c0.6,0,1-0.1,1.5-0.5
			c8.5-7.5,21.5-3.2,23.8,7.9c1.6,7.8-3.9,15.9-11.8,17C30.4,40.5,27.6,40.4,24.9,40.4C24.9,40.5,24.9,40.4,24.9,40.4z M22.8,16.6
			c1.1,0.6,2.1,1.2,3.1,1.8c0.2,0.1,0.5,0,0.7-0.1c1.2-0.4,2.3-0.9,3.5-1.1c3.9-0.5,7.8,2,9.1,5.7c1.4,3.9-0.2,8.3-3.7,10.5
			c-3.4,2.1-7.7,1.6-10.6-1.3c-1.9-1.8-3.7-3.7-5.6-5.5c-0.3-0.3-0.8-0.6-1.3-0.7c-0.8-0.2-1.5,0.3-1.8,1.1
			c-0.4,0.8-0.1,1.6,0.5,2.2c2,2,3.9,4,5.9,5.8c2.7,2.6,6,3.7,9.8,3.3c6.6-0.6,12-7.7,10.8-14.2c-1-5.9-5.3-10-11.3-10.6
			C28.6,13.2,25.5,14.2,22.8,16.6z M23.9,38.5c0-0.1,0-0.2,0.1-0.3c-0.7-0.5-1.5-1.1-2.2-1.6c-1.4-1.1-2.7-1.7-4.4-2.1
			c-2.7-0.7-4.8-3-5.1-5.9c-0.3-2.6,1.3-5.2,3.8-6.4c2.5-1.2,5.4-0.6,7.4,1.5c1.2,1.2,2.3,2.4,3.5,3.6c0.9,1,2.1,1,2.8,0.2
			c0.8-0.8,0.8-1.8-0.2-2.8c-1.3-1.3-2.5-2.6-3.8-3.9c-2.5-2.4-5.5-3.2-8.8-2.7c-4.6,0.8-8.2,4.8-8.4,9.2c-0.2,5.1,2.8,9.6,7.6,10.6
			C18.7,38.5,21.4,38.3,23.9,38.5z"/>
	</g>
</g>
</svg>
