<?xml version="1.0" encoding="utf-8"?>
<!-- Generator: Adobe Illustrator 25.4.1, SVG Export Plug-In . SVG Version: 6.00 Build 0)  -->
<svg version="1.1" id="Layer_1" xmlns="http://www.w3.org/2000/svg" xmlns:xlink="http://www.w3.org/1999/xlink" x="0px" y="0px"
	 viewBox="0 0 52 52.2" style="enable-background:new 0 0 52 52.2;" xml:space="preserve">
<style type="text/css">
	.st0{fill:#174944;}
	.st1{fill:#FFFFFF;}
</style>
<circle class="st0" cx="26.1" cy="26" r="26"/>
<path class="st1" d="M43,8.9H9l3,34l14,4l14-4L43,8.9L43,8.9z"/>
<path class="st0" d="M35.1,16.9H26v4h4.9l-0.3,4H26v4h4.4l-0.3,4.5L26,34.8V39l7.9-2.6l0.7-11.5l0,0L35.1,16.9z"/>
<path class="st0" d="M26,16.9v4h-8.9l-0.3-4H26z M21.4,24.9l0.2,4H26v-4H21.4z M21.8,30.9h-4l0.3,5.5L26,39v-4.2l-4.1-1.4L21.8,30.9
	z"/>
</svg>
