<?xml version="1.0" encoding="utf-8"?>
<!-- Generator: Adobe Illustrator 25.4.1, SVG Export Plug-In . SVG Version: 6.00 Build 0)  -->
<svg version="1.1" id="Layer_1" xmlns="http://www.w3.org/2000/svg" xmlns:xlink="http://www.w3.org/1999/xlink" x="0px" y="0px"
	 viewBox="0 0 52 52" style="enable-background:new 0 0 52 52;" xml:space="preserve">
<style type="text/css">
	.st0{fill:#174944;}
	.st1{fill:#FFFFFF;}
</style>
<circle class="st0" cx="26" cy="26" r="26"/>
<path class="st1" d="M44.2,24.1L27.9,7.8C27.4,7.3,26.7,7,26,7l0,0c-0.7,0-1.4,0.3-1.9,0.8l-3.5,3.5l4.1,4.1
	c0.4-0.2,0.8-0.3,1.3-0.3c1.7,0,3,1.3,3,3c0,0.5-0.1,0.9-0.3,1.3l4,4c0.4-0.2,0.8-0.3,1.3-0.3c1.7,0,3,1.3,3,3s-1.3,3-3,3
	s-3-1.3-3-3c0-0.5,0.1-0.9,0.3-1.3l-4-4c-0.1,0-0.2,0.1-0.3,0.1v10.4c1.2,0.4,2,1.5,2,2.8c0,1.7-1.3,3-3,3s-3-1.3-3-3
	c0-1.3,0.8-2.4,2-2.8V20.8c-1.2-0.4-2-1.5-2-2.8c0-0.5,0.1-0.9,0.3-1.3l-4.1-4.1L7.8,24.1C7.3,24.6,7,25.3,7,26s0.3,1.4,0.8,1.9
	l16.3,16.3l0,0c0.5,0.5,1.2,0.8,1.9,0.8s1.4-0.3,1.9-0.8l16.3-16.3c0.5-0.5,0.8-1.2,0.8-1.9C45,25.3,44.7,24.6,44.2,24.1z"/>
</svg>
