<?xml version="1.0" encoding="utf-8"?>
<!-- Generator: Adobe Illustrator 25.4.1, SVG Export Plug-In . SVG Version: 6.00 Build 0)  -->
<svg version="1.1" id="Layer_1" xmlns="http://www.w3.org/2000/svg" xmlns:xlink="http://www.w3.org/1999/xlink" x="0px" y="0px"
	 viewBox="0 0 52 52" style="enable-background:new 0 0 52 52;" xml:space="preserve">
<style type="text/css">
	.st0{fill:#174944;}
	.st1{fill:#FFFFFF;}
</style>
<circle class="st0" cx="26" cy="26" r="26"/>
<circle class="st1" cx="26" cy="26" r="22.8"/>
<g id="surface46396824">
	<path class="st0" d="M18.8,47.8c0.7-0.3,1.2-1,1.2-1.8v-5.4c0-0.2,0-0.4,0-0.6c0,0,0,0,0,0c0,0-3,0-3.6,0c-1.5,0-2.8-0.6-3.4-1.8
		c-0.7-1.3-1-3.5-2.8-4.7c-0.3-0.2-0.1-0.5,0.5-0.5c0.6,0.1,1.9,0.9,2.7,2c0.9,1.1,1.8,2,3.4,2c2.5,0,3.8-0.1,4.6-0.6
		c0.9-1.4,2.2-2.4,3.6-2.4v0c-5.7-0.2-9.3-2.1-11-5c-3.7,0-6.9,0.4-8.7,0.7c-0.1-0.3-0.1-0.7-0.2-1C7,28.4,10,28.1,13.5,28
		c-0.1-0.3-0.2-0.6-0.3-0.9c-3.5-0.2-6.5,0-8.2,0.1c0-0.3,0-0.7-0.1-1c1.6-0.1,4.6-0.3,8-0.1c-0.1-0.5-0.1-1-0.1-1.5
		c0-1.7,0.6-3.5,1.7-5c-0.5-1.7-1.2-5.3,0.2-6.6c2.7,0,4.6,1.3,5.5,2.1C22,14.4,23.9,14,26,14s4,0.4,5.6,1.1
		c0.9-0.8,2.8-2.1,5.5-2.1c1.5,1.4,0.7,5,0.2,6.6c1.1,1.5,1.7,3.2,1.6,5c0,0.5,0,0.9-0.1,1.4c3.5-0.2,6.5,0,8.2,0.1
		c0,0.3,0,0.7-0.1,1c-1.7-0.1-4.8-0.3-8.4-0.1c-0.1,0.3-0.2,0.7-0.3,1c3.5,0,6.7,0.4,8.6,0.7c0,0.3-0.1,0.7-0.2,1
		c-1.9-0.3-5.2-0.7-8.9-0.7c-1.7,2.9-5.2,4.8-10.8,5v0c2.6,0,5,3.9,5,6.6V46c0,0.8,0.5,1.5,1.2,1.8C42.4,44.8,49,36.2,49,26
		C49,13.3,38.7,3,26,3S3,13.3,3,26C3,36.2,9.6,44.8,18.8,47.8z"/>
</g>
</svg>
