<?xml version="1.0" encoding="utf-8"?>
<!-- Generator: Adobe Illustrator 25.4.1, SVG Export Plug-In . SVG Version: 6.00 Build 0)  -->
<svg version="1.1" id="Layer_1" xmlns="http://www.w3.org/2000/svg" xmlns:xlink="http://www.w3.org/1999/xlink" x="0px" y="0px"
	 viewBox="0 0 52 52" style="enable-background:new 0 0 52 52;" xml:space="preserve">
<style type="text/css">
	.st0{fill:#174944;}
	.st1{fill:none;stroke:#FFFFFF;stroke-miterlimit:10;}
	.st2{fill:#FFFFFF;}
</style>
<circle class="st0" cx="26" cy="26" r="26"/>
<path class="st1" d="M9.9,42.1V9.9h32.2v32.2H9.9z"/>
<path class="st2" d="M30.9,34c0.6,1,1.3,2,2.7,2c1.2,0,1.8-0.6,1.8-1.4c0-1-0.6-1.3-2-1.9l-0.7-0.3c-2.1-0.9-3.5-2-3.5-4.3
	c0-2.2,1.6-3.8,4.2-3.8c1.8,0,3.2,0.6,4.1,2.3l-2.2,1.4c-0.5-0.9-1-1.2-1.9-1.2c-0.8,0-1.4,0.5-1.4,1.2c0,0.9,0.5,1.2,1.8,1.7
	l0.7,0.3c2.5,1,3.8,2.1,3.8,4.5c0,2.6-2,4-4.8,4c-2.7,0-4.2-1.3-5-3L30.9,34z M20.6,34.1c0.5,0.8,1.1,1.4,2.1,1.4
	c0.9,0,1.5-0.4,1.5-1.8v-9.5h3v9.9c0,3-1.7,4.4-4.3,4.4c-2.3,0-4-1.6-4.6-3L20.6,34.1z"/>
</svg>
