<?xml version="1.0" encoding="utf-8"?>
<!-- Generator: Adobe Illustrator 25.4.1, SVG Export Plug-In . SVG Version: 6.00 Build 0)  -->
<svg version="1.1" id="Layer_1" xmlns="http://www.w3.org/2000/svg" xmlns:xlink="http://www.w3.org/1999/xlink" x="0px" y="0px"
	 viewBox="0 0 52 52" style="enable-background:new 0 0 52 52;" xml:space="preserve">
<style type="text/css">
	.st0{fill:#174944;}
	.st1{opacity:5.000000e-02;enable-background:new    ;}
	.st2{opacity:7.000000e-02;enable-background:new    ;}
	.st3{fill:#FFFFFF;}
</style>
<circle class="st0" cx="26" cy="26" r="26"/>
<path class="st1" d="M33,36.8V26.7c0-1.7-0.8-2.7-2.2-2.7c-0.8,0-1.4,0.5-1.8,1.4c0,0.1,0,0.3,0,1.1l0,10.3h-7v-19h7v1.1
	c1-0.7,2.3-1.1,3.7-1.1c4.5,0,7.3,3.1,7.3,8.3l0,10.7H33z M14,36.8v-19h3.5c-2,0-3.5-1.5-3.5-3.5c0-2,1.5-3.5,3.5-3.5
	c2,0,3.4,1.4,3.5,3.5c0,2-1.5,3.5-3.5,3.5H21v19H14z"/>
<path class="st2" d="M33.5,36.3v-9.6c0-2-1-3.2-2.7-3.2c-1.3,0-1.9,0.9-2.2,1.7c-0.1,0.2-0.1,1-0.1,1.3l0,9.8h-6v-18h6V20
	c0.8-0.8,2.1-1.6,4.2-1.6c4.2,0,6.8,2.9,6.8,7.8l0,10.2H33.5z M14.5,36.3v-18h6v18H14.5z M17.5,17.3c-1.7,0-3-1.3-3-3
	c0-1.7,1.3-3,3-3c1.7,0,3,1.2,3,3C20.5,16.1,19.2,17.3,17.5,17.3L17.5,17.3z"/>
<path class="st3" d="M15,18.8h5v17h-5V18.8z M17.5,16.8L17.5,16.8c-1.5,0-2.5-1.1-2.5-2.5c0-1.4,1-2.5,2.5-2.5
	c1.5,0,2.5,1.1,2.5,2.5C20,15.7,19,16.8,17.5,16.8z M39,35.8h-5v-9.1c0-2.2-1.2-3.7-3.2-3.7c-1.5,0-2.3,1-2.7,2
	C28,25.4,28,26.3,28,26.8v9h-5v-17h5v2.6c0.7-1.1,1.9-2.6,4.7-2.6c3.6,0,6.3,2.2,6.3,7.3L39,35.8L39,35.8z"/>
</svg>
