<?xml version="1.0" encoding="utf-8"?>
<!-- Generator: Adobe Illustrator 25.4.1, SVG Export Plug-In . SVG Version: 6.00 Build 0)  -->
<svg version="1.1" id="Layer_1" xmlns="http://www.w3.org/2000/svg" xmlns:xlink="http://www.w3.org/1999/xlink" x="0px" y="0px"
	 viewBox="0 0 52 52" style="enable-background:new 0 0 52 52;" xml:space="preserve">
<style type="text/css">
	.st0{fill:#174944;}
	.st1{fill:#FFFFFF;}
</style>
<circle class="st0" cx="26" cy="26" r="26"/>
<g>
	<path class="st1" d="M2,31.2h1.9v-7.1l2.7,6.1c0.3,0.8,0.8,1,1.7,1s1.3-0.3,1.6-1l2.7-5.9v6.9h1.9V24c0-0.7-0.3-1-0.8-1.2
		c-1.4-0.4-2.3-0.1-2.7,0.9l-2.7,6.2l-2.6-6.2c-0.4-0.9-1.3-1.3-2.7-0.9C2.3,22.9,2,23.3,2,24L2,31.2L2,31.2L2,31.2z"/>
	<path class="st1" d="M15.4,25.5h1.9v4.1c0,0.2,0.1,0.7,1,0.7c0.5,0,2.8,0,2.9,0v-4.8h1.9c0,0,0,6,0,6c0,1.5-1.8,1.7-2.7,1.7h-5v-1
		c0,0,4.8,0,4.8,0c1.1-0.1,1-0.7,1-0.9v-0.1h-3c-1.7,0-2.7-0.8-2.7-1.6C15.4,29.6,15.5,25.5,15.4,25.5z"/>
	<path class="st1" d="M24.1,31.2h4.8c0.6,0,1.2-0.1,1.7-0.4c0.8-0.4,1.1-0.9,1.1-1.5V28c0-1.5-1.8-1.5-2.9-1.5H27
		c-0.8,0-0.9-0.5-1-1v-1c0.1-0.4,0.3-0.9,0.9-1c0.8,0,4.8,0,4.8,0v-1h-4.6c-0.8,0-3.1,0.1-3.1,1.9v1.2c0,0.8,0.7,1.5,2.3,1.7
		c0.2,0,0.4,0,0.5,0c0,0,1.9,0,1.9,0c1.1,0,1,0.8,1,1v1c0,0.1,0,1-1,1c-0.1,0-4.8,0-4.8,0L24.1,31.2L24.1,31.2z"/>
	<path class="st1" d="M42.3,29.3c0,1.2,0.7,1.8,2.4,1.9c0.2,0,0.3,0,0.5,0H50v-1h-4.4c-1,0-1.3-0.4-1.3-1v-6.7h-1.9V29.3z"/>
	<path class="st1" d="M32.7,29.3v-4.8c0-1,0.5-1.7,1.9-1.9h0.7h3.4h0.5c1.4,0.2,2.1,0.9,2.1,1.9v4.8c0,0.8-0.2,1.3-0.9,1.6l1.5,1.3
		h-2.2l-1.1-1h-1.3l-2.1,0c-0.3,0-0.6,0-1-0.1C33.2,30.8,32.7,30.3,32.7,29.3z M34.6,29.3c0.1,0.5,0.5,1,1.1,1h1.9l-1.1-1h2.2
		l0.5,0.5c0,0,0.2-0.2,0.2-0.5c0-0.3,0-4.8,0-4.8c-0.1-0.4-0.5-1-1.2-1h-2.5c-0.7,0-1.1,0.5-1.1,1.1L34.6,29.3L34.6,29.3z"/>
	<path class="st1" d="M48.2,21.6c-1,0-1.8,0.1-2.5,0.4c-0.2,0.1-0.5,0.1-0.5,0.3c0.1,0.1,0.1,0.3,0.2,0.4c0.2,0.3,0.4,0.6,0.7,0.8
		c0.3,0.2,0.5,0.4,0.8,0.6c0.5,0.3,1.1,0.5,1.6,0.8c0.3,0.2,0.6,0.4,0.8,0.6c0.1,0.1,0.2,0.3,0.4,0.3c0,0,0,0,0,0
		c-0.1-0.1-0.1-0.3-0.2-0.4c-0.1-0.1-0.3-0.3-0.4-0.4c-0.4-0.5-0.8-0.9-1.3-1.3c-0.4-0.3-1.3-0.7-1.5-1.1c0,0,0,0,0,0
		c0.3,0,0.6-0.1,0.9-0.2c0.4-0.1,0.8-0.1,1.3-0.2c0.2-0.1,0.4-0.1,0.6-0.2c0,0,0-0.1,0-0.1c-0.2-0.2-0.4-0.5-0.6-0.8
		c-0.7-0.6-1.4-1.1-2.1-1.6c-0.4-0.3-0.9-0.4-1.3-0.6c-0.1-0.1-0.4-0.1-0.5-0.2c-0.2-0.3-0.4-0.7-0.5-1c-0.4-0.7-0.7-1.5-1.1-2.2
		c-0.2-0.5-0.4-1-0.6-1.5c-1.3-2.2-2.8-3.5-5-4.8c-0.5-0.3-1-0.4-1.6-0.5c-0.3,0-0.6,0-1-0.1C34.4,8.4,34.2,8.2,34,8
		c-0.7-0.5-2.6-1.5-3.2-0.1c-0.3,0.8,0.5,1.7,0.8,2.1c0.2,0.3,0.5,0.6,0.6,1c0.1,0.2,0.1,0.4,0.2,0.7c0.2,0.6,0.5,1.2,0.8,1.8
		c0.1,0.3,0.3,0.6,0.5,0.8c0.1,0.1,0.3,0.2,0.3,0.4c-0.2,0.3-0.2,0.6-0.3,1c-0.5,1.4-0.3,3.2,0.4,4.3c0.2,0.3,0.7,1,1.3,0.8
		c0.6-0.2,0.5-1,0.6-1.6c0-0.1,0-0.3,0.1-0.4c0,0,0,0,0,0c0.2,0.4,0.4,0.7,0.5,1.1c0.4,0.6,1.1,1.3,1.7,1.7c0.3,0.2,0.5,0.6,0.9,0.8
		c0,0,0,0,0,0c0,0,0,0,0,0c-0.1-0.1-0.2-0.2-0.3-0.3c-0.2-0.2-0.5-0.5-0.7-0.8c-0.5-0.7-1-1.5-1.4-2.3c-0.2-0.4-0.4-0.8-0.6-1.2
		c-0.1-0.2-0.1-0.4-0.2-0.5c-0.2,0.3-0.5,0.5-0.6,0.9c-0.2,0.6-0.3,1.2-0.4,1.9c-0.1,0,0,0-0.1,0c-0.4-0.1-0.6-0.5-0.7-0.9
		c-0.4-0.9-0.5-2.4-0.1-3.4c0.1-0.3,0.5-1.1,0.3-1.4c-0.1-0.3-0.3-0.4-0.5-0.6c-0.2-0.2-0.3-0.5-0.5-0.8c-0.3-0.7-0.6-1.5-0.9-2.3
		c-0.2-0.3-0.4-0.7-0.6-1c-0.2-0.3-0.5-0.6-0.7-1c-0.1-0.1-0.2-0.4-0.1-0.5C31.5,8,31.5,8,31.6,8c0.2-0.1,0.6,0,0.8,0.1
		c0.5,0.2,0.9,0.4,1.3,0.6c0.2,0.1,0.4,0.4,0.6,0.4c0.1,0,0.2,0,0.3,0c0.4,0.1,0.9,0,1.3,0.1c0.7,0.2,1.3,0.5,1.8,0.9
		c1.7,1.1,3.1,2.6,4,4.4c0.2,0.3,0.2,0.6,0.4,0.9c0.3,0.6,0.6,1.3,0.9,1.9c0.3,0.6,0.5,1.2,0.9,1.7c0.2,0.3,1,0.4,1.3,0.6
		c0.2,0.1,0.6,0.2,0.9,0.4c0.4,0.3,0.9,0.6,1.3,0.9C47.5,21,48.2,21.3,48.2,21.6z"/>
	<path class="st1" d="M35.1,10.4c-0.2,0-0.4,0-0.5,0.1c0,0,0,0,0,0c0,0,0,0,0,0c0.1,0.2,0.3,0.3,0.4,0.5c0.1,0.2,0.2,0.4,0.3,0.6
		c0,0,0,0,0,0c0.2-0.1,0.3-0.3,0.3-0.6c-0.1-0.1-0.1-0.2-0.1-0.3C35.4,10.6,35.2,10.5,35.1,10.4z"/>
</g>
</svg>
