<?xml version="1.0" encoding="utf-8"?>
<!-- Generator: Adobe Illustrator 25.4.1, SVG Export Plug-In . SVG Version: 6.00 Build 0)  -->
<svg version="1.1" id="Layer_1" xmlns="http://www.w3.org/2000/svg" xmlns:xlink="http://www.w3.org/1999/xlink" x="0px" y="0px"
	 viewBox="0 0 52 52" style="enable-background:new 0 0 52 52;" xml:space="preserve">
<style type="text/css">
	.st0{fill:#174944;}
	.st1{fill:#FFFFFF;}
</style>
<circle class="st0" cx="26" cy="26" r="26"/>
<g>
	<path class="st1" d="M19.7,21.3l-4.6,2.5c-0.2,0.1-0.3,0.3-0.3,0.5v5.1c0,0.2,0.1,0.4,0.3,0.5l4.6,2.5c0.2,0.1,0.4,0.1,0.6,0
		l4.6-2.5c0.2-0.1,0.3-0.3,0.3-0.5v-5.1c0-0.2-0.1-0.4-0.3-0.5l-4.6-2.5c-0.1,0-0.2-0.1-0.3-0.1C19.8,21.2,19.7,21.2,19.7,21.3
		 M43.2,25.8l-0.8,0.4c0,0,0,0,0,0.1v0.8c0,0,0,0.1,0,0.1l0.8,0.4c0,0,0.1,0,0.1,0l0.8-0.4c0,0,0,0,0-0.1v-0.8c0,0,0-0.1,0-0.1
		L43.2,25.8C43.3,25.8,43.3,25.8,43.2,25.8C43.2,25.8,43.2,25.8,43.2,25.8"/>
	<path class="st1" d="M37,15.9l-2.2-1.2c-0.1,0-0.2,0-0.2,0c-0.1,0-0.1,0.1-0.1,0.2l0,7.5l-2.1-1.1c-0.1,0-0.2-0.1-0.3-0.1
		c-0.1,0-0.2,0-0.3,0.1h0l-4.6,2.5c-0.2,0.1-0.3,0.3-0.3,0.5v5.1c0,0.2,0.1,0.4,0.3,0.5l4.6,2.5c0.2,0.1,0.4,0.1,0.6,0l4.6-2.5
		c0.2-0.1,0.3-0.3,0.3-0.5v-13C37.2,16.1,37.1,16,37,15.9z M34.3,28.1l-2.1,1.2c-0.1,0-0.2,0-0.3,0l-2.1-1.2c-0.1,0-0.1-0.1-0.1-0.2
		v-2.3c0-0.1,0-0.2,0.1-0.2l2.1-1.2h0c0,0,0.1,0,0.1,0s0.1,0,0.1,0l2.1,1.2c0.1,0,0.1,0.1,0.1,0.2v2.3C34.4,28,34.3,28.1,34.3,28.1z
		"/>
	<path class="st1" d="M19.7,21.3l-4.9,8.1c0,0.2,0.1,0.4,0.3,0.5l4.6,2.5c0.2,0.1,0.4,0.1,0.6,0l4.9-8.1c0-0.2-0.1-0.4-0.3-0.5
		l-4.6-2.5c-0.1,0-0.2-0.1-0.3-0.1C19.8,21.2,19.7,21.2,19.7,21.3"/>
	<path class="st1" d="M19.7,21.3l-4.6,2.5c-0.2,0.1-0.3,0.3-0.3,0.5l4.9,8.1c0.2,0.1,0.4,0.1,0.6,0l4.6-2.5c0.2-0.1,0.3-0.3,0.3-0.5
		l-4.9-8.1c-0.1,0-0.2-0.1-0.3-0.1C19.8,21.2,19.7,21.2,19.7,21.3"/>
	<path class="st1" d="M48.1,23.8l-4.6-2.5c-0.1,0-0.2-0.1-0.3-0.1c-0.1,0-0.2,0-0.3,0.1h0l-4.6,2.5c-0.2,0.1-0.3,0.3-0.3,0.5v5
		c0,0.2,0.1,0.4,0.3,0.5l4.6,2.5c0.2,0.1,0.4,0.1,0.6,0l2.1-1.2c0.2-0.1,0.2-0.4,0-0.5l-4.6-2.5c-0.1,0-0.1-0.1-0.1-0.2v-2.3
		c0-0.1,0-0.2,0.1-0.2l2.1-1.2h0c0,0,0.1,0,0.1,0c0,0,0.1,0,0.1,0l2.1,1.2c0.1,0,0.1,0.1,0.1,0.2v1.9c0,0.1,0,0.2,0.1,0.2
		c0.1,0,0.2,0,0.2,0l2.2-1.3c0.1-0.1,0.2-0.2,0.2-0.4v-1.8C48.4,24,48.3,23.9,48.1,23.8z M13.6,23.8L9,21.2c-0.1,0-0.2-0.1-0.3-0.1
		s-0.2,0-0.3,0.1h0l-4.6,2.5c-0.2,0.1-0.3,0.3-0.3,0.5v7c0,0.1,0,0.2,0.1,0.2c0.1,0,0.2,0,0.2,0l2.2-1.3c0.1-0.1,0.2-0.2,0.2-0.4
		v-4.1c0-0.1,0-0.2,0.1-0.2l2.1-1.2l0,0c0,0,0.1,0,0.1,0s0.1,0,0.1,0l2.1,1.2c0.1,0,0.1,0.1,0.1,0.2v4.1c0,0.2,0.1,0.3,0.2,0.4
		l2.2,1.3c0.1,0,0.2,0,0.2,0c0.1,0,0.1-0.1,0.1-0.2v-7C13.9,24,13.8,23.9,13.6,23.8z"/>
</g>
</svg>
