<?xml version="1.0" encoding="utf-8"?>
<!-- Generator: Adobe Illustrator 25.4.1, SVG Export Plug-In . SVG Version: 6.00 Build 0)  -->
<svg version="1.1" id="Layer_1" xmlns="http://www.w3.org/2000/svg" xmlns:xlink="http://www.w3.org/1999/xlink" x="0px" y="0px"
	 viewBox="0 0 52 52" style="enable-background:new 0 0 52 52;" xml:space="preserve">
<style type="text/css">
	.st0{fill:#174944;}
	.st1{fill:#FFFFFF;}
</style>
<circle class="st0" cx="26" cy="26" r="26"/>
<g id="surface46387764">
	<path class="st1" d="M35.6,5c-0.8,0-1.6,0.1-2.4,0.4c-1.6,0.5-3.4,1.6-5.1,3c-0.7,0.6-1.4,1.2-2.1,1.9c-0.7-0.7-1.4-1.3-2-1.8
		c-1.8-1.4-3.5-2.5-5.1-3c-1.6-0.5-3.3-0.5-4.6,0.2c-1.3,0.8-2.1,2.2-2.5,3.9s-0.3,3.7,0,5.9c0.1,0.8,0.3,1.6,0.5,2.4
		c-0.8,0.2-1.5,0.5-2.2,0.7c-2.1,0.8-3.8,1.8-5,2.9C3.8,22.7,3,24.1,3,25.6s0.8,2.9,2.1,4.1c1.2,1.2,3,2.1,5,2.9
		c0.7,0.3,1.5,0.5,2.3,0.8c-0.3,1.1-0.5,2.2-0.7,3.2c-0.4,2.2-0.4,4.2,0,5.9c0.4,1.7,1.2,3.1,2.5,3.9s3,0.8,4.6,0.2
		c1.6-0.5,3.3-1.6,5.1-3c0.7-0.6,1.4-1.2,2.1-1.9c0.7,0.7,1.4,1.3,2.1,1.9c1.8,1.4,3.5,2.5,5.1,3c1.6,0.5,3.3,0.5,4.6-0.2
		s2.1-2.2,2.5-3.9c0.4-1.7,0.3-3.7,0-5.9c-0.2-1-0.4-2.1-0.7-3.2c0.8-0.2,1.7-0.5,2.4-0.8c2.1-0.8,3.8-1.8,5-2.9
		c1.2-1.1,2.1-2.5,2.1-4.1s-0.8-2.9-2.1-4.1c-1.2-1.2-3-2.1-5-2.9c-0.7-0.3-1.4-0.5-2.2-0.8c0.2-0.8,0.4-1.7,0.5-2.4
		c0.4-2.2,0.4-4.2,0-5.9c-0.4-1.7-1.2-3.1-2.5-3.9C37.1,5.2,36.3,5,35.6,5z M35.5,7c0.5,0,0.9,0.1,1.3,0.3c0.7,0.4,1.2,1.2,1.5,2.5
		s0.3,3.1-0.1,5.2c-0.1,0.7-0.3,1.5-0.5,2.2c-2-0.5-4.3-0.9-6.7-1.1c-1.2-1.7-2.4-3.2-3.7-4.5c0.7-0.6,1.3-1.2,1.9-1.8
		c1.6-1.3,3.2-2.2,4.4-2.6C34.4,7.1,35,7,35.5,7z M16.5,7c0.5,0,1.1,0.1,1.7,0.3c1.3,0.4,2.8,1.3,4.5,2.6c0.6,0.5,1.3,1.1,1.9,1.7
		c-1.3,1.4-2.5,2.9-3.7,4.6c-2.4,0.2-4.6,0.6-6.6,1.1c-0.2-0.8-0.3-1.5-0.5-2.2c-0.3-2.1-0.3-3.9-0.1-5.2c0.3-1.3,0.8-2.1,1.5-2.5
		C15.6,7.2,16,7,16.5,7L16.5,7z M26,13.1c0.8,0.9,1.6,1.9,2.4,2.9C27.6,16,26.8,16,26,16c-0.8,0-1.7,0-2.5,0.1
		C24.3,15,25.2,14,26,13.1z M26,18c1.4,0,2.7,0.1,4,0.1c0.9,1.3,1.8,2.6,2.6,4.1c0.7,1.3,1.4,2.5,2,3.8c-0.6,1.3-1.3,2.5-2,3.8
		c-0.6,1.1-1.3,2.2-2,3.2c-1.5,0.1-3,0.2-4.5,0.2c-1.6,0-3.1-0.1-4.6-0.2c-0.7-1-1.3-2.1-2-3.2c-0.7-1.3-1.4-2.5-2-3.8
		c0.6-1.3,1.3-2.5,2-3.8c0.8-1.4,1.7-2.8,2.6-4C23.3,18.1,24.6,18,26,18z M32.6,18.4c1.6,0.2,3.2,0.5,4.6,0.8
		c-0.4,1.4-1,2.9-1.6,4.4c-0.4-0.8-0.8-1.6-1.3-2.4C33.7,20.2,33.1,19.3,32.6,18.4z M19.3,18.4c-0.6,0.9-1.1,1.8-1.7,2.8
		c-0.5,0.8-0.9,1.6-1.3,2.4c-0.6-1.5-1.2-3-1.6-4.4C16.2,18.9,17.7,18.6,19.3,18.4z M39.2,19.8c0.7,0.2,1.4,0.4,2,0.7
		c1.9,0.7,3.4,1.6,4.4,2.5s1.4,1.8,1.4,2.6s-0.4,1.7-1.4,2.6s-2.5,1.8-4.4,2.5c-0.7,0.3-1.5,0.5-2.3,0.8c-0.6-1.8-1.3-3.6-2.2-5.5
		C37.8,23.9,38.6,21.8,39.2,19.8z M12.8,19.8c0.6,2,1.4,4.1,2.4,6.2c-0.9,1.9-1.6,3.7-2.2,5.5c-0.8-0.2-1.5-0.5-2.2-0.7
		c-1.9-0.7-3.4-1.6-4.4-2.5S5,26.4,5,25.6s0.4-1.7,1.4-2.6s2.5-1.8,4.4-2.5C11.4,20.2,12.1,20,12.8,19.8L12.8,19.8z M26,21
		c-2.8,0-5,2.2-5,5s2.2,5,5,5s5-2.2,5-5S28.8,21,26,21z M26,23c1.7,0,3,1.3,3,3s-1.3,3-3,3s-3-1.3-3-3S24.3,23,26,23z M35.6,28.4
		c0.5,1.2,1,2.5,1.4,3.6c-1.2,0.3-2.5,0.5-3.8,0.7c0.4-0.6,0.8-1.2,1.1-1.9C34.8,30,35.2,29.2,35.6,28.4z M16.3,28.4
		c0.4,0.8,0.9,1.6,1.3,2.4c0.4,0.6,0.7,1.3,1.1,1.9c-1.3-0.2-2.6-0.4-3.8-0.7C15.4,30.8,15.8,29.6,16.3,28.4L16.3,28.4z M14.4,33.9
		c1.8,0.4,3.8,0.8,5.9,1c1.4,2,2.8,3.8,4.3,5.4c-0.7,0.6-1.3,1.2-1.9,1.7c-1.6,1.3-3.2,2.2-4.4,2.6c-1.3,0.4-2.2,0.4-3-0.1
		c-0.7-0.4-1.2-1.2-1.5-2.5s-0.3-3.1,0.1-5.2C13.9,36,14.1,35,14.4,33.9z M37.6,33.9c0.3,1,0.5,2.1,0.7,3c0.3,2.1,0.3,3.9,0.1,5.2
		c-0.3,1.3-0.8,2.1-1.5,2.6c-0.7,0.4-1.7,0.5-3,0.1c-1.3-0.4-2.8-1.3-4.5-2.6c-0.6-0.5-1.3-1.1-1.9-1.8c1.5-1.6,2.9-3.4,4.3-5.4
		C33.8,34.7,35.7,34.4,37.6,33.9z M22.9,35.1c1,0.1,2.1,0.1,3.1,0.1c1,0,2,0,3-0.1c-1,1.4-2.1,2.6-3.1,3.7
		C24.9,37.7,23.9,36.5,22.9,35.1z"/>
</g>
</svg>
