<?xml version="1.0" encoding="utf-8"?>
<!-- Generator: Adobe Illustrator 25.4.1, SVG Export Plug-In . SVG Version: 6.00 Build 0)  -->
<svg version="1.1" id="Layer_1" xmlns="http://www.w3.org/2000/svg" xmlns:xlink="http://www.w3.org/1999/xlink" x="0px" y="0px"
	 viewBox="0 0 52 52.2" style="enable-background:new 0 0 52 52.2;" xml:space="preserve">
<style type="text/css">
	.st0{fill:#174944;}
	.st1{fill:#FFFFFF;}
</style>
<circle class="st0" cx="26" cy="26.1" r="26"/>
<g id="_x30_sBrlB_00000154415560743733951370000005297503636475274424_">
	<g>
		<path class="st1" d="M28.7,17.2c0.7-0.1,1.5-0.1,2.2-0.2c0.5,0,0.8-0.4,0.8-0.8c0-0.5-0.4-0.8-0.9-0.8c-0.8,0-1.5,0.1-2.3,0.1
			c-2.6,0.2-5.2,0-7.9-0.1c-0.6,0-0.9,0.2-1,0.7c0,0.5,0.2,0.8,0.7,0.8c0.6,0.1,1.2,0.1,1.8,0.2c0.1,0,0.2,0.1,0.3,0.2
			c1,2.6,1.9,5.1,2.9,7.7c0,0.1,0,0.2,0,0.4c-1.4,4-2.7,7.9-4.1,11.9c0,0.1-0.1,0.1-0.1,0.3c-2.4-6.9-4.7-13.7-7.1-20.5
			c0.7-0.1,1.4-0.1,2.2-0.2c0.5,0,0.8-0.3,0.8-0.7c0-0.5-0.3-0.9-0.9-0.8c-0.9,0-1.8,0.1-2.6,0.2c-1.1,0-2.2,0.1-3.3,0.1
			c-0.1,0-0.2,0-0.4,0c2.8-4,6.6-6.7,11.3-7.9c6.7-1.6,12.7-0.1,18,4.2c0,0,0,0.1,0,0.1c-0.1,0-0.2,0-0.3,0
			c-1.7,0.1-3.1,1.4-3.2,3.1c0,0.9,0.2,1.7,0.6,2.5c0.4,0.7,0.8,1.3,1.2,2c0.8,1.3,1.4,2.6,1.6,4.1c0.2,1.1,0.1,2.3-0.2,3.4
			c-0.6,2.1-1.3,4.2-1.9,6.3c-0.4,1.2-0.7,2.3-1.1,3.5c0,0.1-0.1,0.2-0.1,0.5C33.4,30.7,31,24,28.7,17.2z"/>
		<path class="st1" d="M32.4,44c-3.9,1.3-7.9,1.4-11.9,0.3c1.9-5.5,3.9-10.9,5.8-16.4c0,0,0,0,0.1,0C28.4,33.2,30.4,38.6,32.4,44z"
			/>
		<path class="st1" d="M8.3,18.5c3.1,8.2,6.1,16.4,9.2,24.6c0,0,0,0-0.1,0c-4.4-2.2-7.7-5.5-9.5-10.2C6,28.1,6.1,23.2,8.3,18.5
			C8.2,18.5,8.2,18.5,8.3,18.5z"/>
		<path class="st1" d="M43.1,17.1c4.8,8.4,2.1,20-7.3,25.3c0-0.1,0-0.2,0.1-0.3c1.9-5.4,3.9-10.9,5.8-16.3c0.5-1.4,1-2.7,1.3-4.2
			c0.3-1.4,0.3-2.8,0.2-4.3C43.1,17.3,43.1,17.3,43.1,17.1z"/>
	</g>
</g>
</svg>
